<?xml version="1.0" encoding="UTF-8" standalone="no"?>
<!-- Created with Inkscape (http://www.inkscape.org/) -->

<svg
   width="142.875mm"
   height="55.562508mm"
   viewBox="0 0 142.875 55.562508"
   version="1.1"
   id="svg1"
   xml:space="preserve"
   xmlns="http://www.w3.org/2000/svg"
   xmlns:svg="http://www.w3.org/2000/svg"><defs
     id="defs1" /><g
     id="layer1"
     transform="translate(-35.711933,-57.500462)"><g
       id="g1"
       transform="matrix(7.9375,0,0,7.9375,35.711937,57.50046)"><path
         fill="#cb3837"
         d="M 0,0 H 18 V 6 H 9 V 7 H 5 V 6 H 0 Z M 1,5 H 3 V 2 H 4 V 5 H 5 V 1 H 1 Z M 6,1 V 6 H 8 V 5 h 2 V 1 Z M 8,2 H 9 V 4 H 8 Z m 3,-1 v 4 h 2 V 2 h 1 v 3 h 1 V 2 h 1 v 3 h 1 V 1 Z"
         id="path1" /><polygon
         fill="#ffffff"
         points="3,5 3,2 4,2 4,5 5,5 5,1 1,1 1,5 "
         id="polygon1" /><path
         fill="#ffffff"
         d="M 6,1 V 6 H 8 V 5 h 2 V 1 Z M 9,4 H 8 V 2 h 1 z"
         id="path2" /><polygon
         fill="#ffffff"
         points="16,5 17,5 17,1 11,1 11,5 13,5 13,2 14,2 14,5 15,5 15,2 16,2 "
         id="polygon2" /></g></g></svg>
